<svg version="1.1" xmlns="http://www.w3.org/2000/svg" xmlns:xlink="http://www.w3.org/1999/xlink" width="238" height="55" viewBox="0, 0, 400, 85"><g><path d="M270.000 25.333 L 270.000 29.167 270.833 29.167 L 271.667 29.167 271.667 25.333 L 271.667 21.500 270.833 21.500 L 270.000 21.500 270.000 25.333 M276.833 25.333 L 276.833 29.167 277.500 29.167 L 278.167 29.167 278.167 26.750 L 278.167 24.333 278.513 24.679 C 278.703 24.870,279.112 25.451,279.422 25.971 C 281.059 28.720,281.366 29.079,282.126 29.135 L 282.833 29.186 282.833 25.343 L 282.833 21.500 282.167 21.500 L 281.500 21.500 281.500 23.917 C 281.500 26.130,281.358 26.864,281.091 26.024 C 280.957 25.601,279.121 22.708,278.563 22.042 C 278.197 21.604,277.988 21.500,277.472 21.500 L 276.833 21.500 276.833 25.333 M288.000 25.333 L 288.000 29.167 288.829 29.167 L 289.658 29.167 289.704 26.810 L 289.750 24.453 290.417 25.594 C 290.783 26.221,291.327 27.026,291.624 27.382 C 291.922 27.738,292.288 28.289,292.439 28.606 C 292.699 29.155,292.749 29.181,293.481 29.133 L 294.250 29.083 294.295 25.292 L 294.340 21.500 293.503 21.500 L 292.667 21.500 292.665 23.875 L 292.663 26.250 292.280 25.583 C 292.070 25.217,291.704 24.709,291.468 24.454 C 291.231 24.200,290.935 23.788,290.809 23.538 C 289.892 21.712,289.684 21.500,288.817 21.500 L 288.000 21.500 288.000 25.333 M301.358 21.668 C 297.616 23.262,298.791 29.167,302.850 29.167 C 305.802 29.167,307.496 26.001,306.092 23.110 C 305.470 21.829,302.853 21.032,301.358 21.668 M311.000 21.721 C 311.000 22.052,312.009 25.023,312.253 25.412 C 312.370 25.598,312.714 26.519,313.018 27.458 L 313.571 29.167 314.502 29.167 L 315.433 29.167 316.418 26.208 C 316.959 24.581,317.445 23.212,317.496 23.167 C 317.678 23.006,318.000 22.148,318.000 21.825 C 318.000 21.547,317.882 21.500,317.182 21.500 L 316.364 21.500 315.656 23.708 C 315.267 24.923,314.896 25.954,314.832 26.000 C 314.769 26.046,314.649 26.290,314.567 26.542 C 314.434 26.946,314.312 26.675,313.530 24.250 L 312.643 21.500 311.822 21.500 C 311.250 21.500,311.000 21.567,311.000 21.721 M333.167 22.167 L 333.167 22.833 334.083 22.833 L 335.000 22.833 335.000 26.000 L 335.000 29.167 335.833 29.167 L 336.667 29.167 336.667 26.000 L 336.667 22.833 337.667 22.833 L 338.667 22.833 338.667 22.167 L 338.667 21.500 335.917 21.500 L 333.167 21.500 333.167 22.167 M343.333 25.333 L 343.333 29.167 344.000 29.167 L 344.667 29.167 344.667 25.333 L 344.667 21.500 344.000 21.500 L 343.333 21.500 343.333 25.333 M351.838 21.685 C 350.417 22.253,349.667 23.522,349.667 25.361 C 349.667 30.252,356.617 30.615,357.119 25.750 C 357.424 22.788,354.574 20.594,351.838 21.685 M362.000 25.333 L 362.000 29.167 362.750 29.167 L 363.500 29.167 363.507 26.792 L 363.514 24.417 364.007 24.994 C 364.278 25.311,364.500 25.634,364.500 25.712 C 364.500 25.790,365.005 26.599,365.623 27.510 L 366.747 29.167 367.457 29.167 L 368.167 29.167 368.167 25.333 L 368.167 21.500 367.417 21.500 L 366.667 21.500 366.667 23.833 C 366.667 25.278,366.603 26.167,366.500 26.167 C 366.408 26.167,366.333 26.094,366.333 26.005 C 366.333 25.825,364.607 23.099,363.880 22.133 C 363.476 21.594,363.327 21.514,362.708 21.508 L 362.000 21.500 362.000 25.333 M324.480 22.125 C 324.381 22.377,324.203 22.883,324.084 23.250 C 323.511 25.011,322.615 27.425,322.508 27.500 C 322.362 27.601,322.000 28.629,322.000 28.942 C 322.000 29.100,322.242 29.167,322.820 29.167 L 323.640 29.167 323.919 28.327 L 324.198 27.487 325.549 27.535 L 326.901 27.583 327.146 28.375 L 327.392 29.167 328.196 29.167 C 328.820 29.167,329.000 29.107,329.000 28.902 C 329.000 28.539,328.027 25.754,327.578 24.833 C 327.377 24.421,327.038 23.540,326.826 22.875 L 326.439 21.667 325.549 21.667 C 324.732 21.667,324.644 21.705,324.480 22.125 M159.944 22.944 C 159.883 23.006,159.833 26.381,159.833 30.444 L 159.833 37.833 162.875 37.827 L 165.917 37.820 166.253 37.285 C 167.938 34.607,171.836 36.392,171.448 39.663 C 171.057 42.968,167.118 43.671,166.038 40.629 L 165.755 39.833 162.687 39.833 L 159.619 39.833 159.726 40.858 C 159.785 41.421,159.895 41.965,159.970 42.066 C 160.044 42.167,160.288 42.736,160.511 43.330 C 161.016 44.675,162.494 46.232,163.990 46.995 C 165.951 47.995,170.033 48.208,172.434 47.436 C 178.516 45.478,179.428 34.703,173.747 31.910 C 171.783 30.944,168.241 30.985,166.375 31.994 L 165.500 32.468 165.500 30.401 L 165.500 28.333 170.917 28.333 L 176.333 28.333 176.333 25.583 L 176.333 22.833 168.194 22.833 C 163.718 22.833,160.006 22.883,159.944 22.944 M303.704 23.020 C 305.395 23.925,305.569 26.395,304.005 27.292 C 302.365 28.231,300.761 27.262,300.763 25.333 C 300.765 23.509,302.325 22.282,303.704 23.020 M354.204 23.009 C 354.772 23.268,355.363 24.229,355.454 25.045 C 355.706 27.275,353.339 28.527,351.881 26.936 C 350.257 25.163,352.098 22.050,354.204 23.009 M212.750 23.111 C 212.475 23.156,212.179 23.262,212.092 23.346 C 212.005 23.431,211.780 23.501,211.592 23.503 C 209.511 23.523,205.100 26.574,204.266 28.570 C 204.129 28.898,203.947 29.167,203.862 29.167 C 203.268 29.167,202.336 32.994,202.335 35.444 C 202.333 37.989,203.113 41.488,203.795 41.991 C 203.863 42.042,204.268 42.608,204.694 43.250 C 207.873 48.038,216.801 49.771,221.018 46.419 C 221.421 46.098,221.817 45.836,221.899 45.835 C 222.124 45.832,223.833 44.332,223.833 44.137 C 223.833 44.043,224.167 43.595,224.574 43.142 C 228.060 39.264,227.483 30.905,223.441 26.712 C 221.791 25.001,220.753 24.423,217.500 23.406 C 216.592 23.122,213.763 22.947,212.750 23.111 M188.167 23.365 C 181.540 24.861,178.663 28.257,178.383 34.917 C 178.229 38.593,179.386 42.981,180.695 43.682 C 180.863 43.772,181.000 43.947,181.000 44.072 C 181.000 44.342,182.771 46.000,183.060 46.000 C 183.169 46.000,183.503 46.223,183.801 46.495 C 185.591 48.130,191.880 48.523,195.223 47.210 C 197.620 46.269,200.079 43.827,200.938 41.536 C 201.100 41.104,201.285 40.712,201.349 40.667 C 201.538 40.531,201.863 39.152,201.766 38.899 C 201.694 38.712,201.066 38.667,198.509 38.667 L 195.340 38.667 194.990 39.352 C 193.051 43.154,187.857 43.274,185.398 39.573 C 184.330 37.967,184.262 34.131,185.264 32.052 C 187.043 28.362,192.632 28.005,194.646 31.453 L 195.250 32.486 198.560 32.493 L 201.870 32.500 201.758 31.875 C 201.584 30.910,199.920 27.652,199.268 27.000 C 197.504 25.233,196.903 24.805,195.387 24.229 C 193.151 23.380,189.849 22.985,188.167 23.365 M95.667 35.668 L 95.667 47.836 105.275 47.793 L 114.884 47.750 115.478 45.833 C 116.274 43.271,115.757 43.500,120.743 43.500 C 124.009 43.500,125.027 43.549,125.080 43.708 C 125.119 43.823,125.423 44.798,125.757 45.875 L 126.364 47.833 129.682 47.833 C 131.507 47.833,133.000 47.767,133.000 47.686 C 133.000 47.426,132.136 44.947,131.744 44.083 C 131.536 43.625,131.018 42.237,130.593 41.000 C 129.456 37.693,129.115 36.760,129.011 36.667 C 128.897 36.565,128.755 36.177,127.552 32.667 C 127.034 31.154,126.557 29.879,126.491 29.833 C 126.378 29.754,125.661 27.780,124.720 24.958 L 124.289 23.667 120.740 23.667 L 117.191 23.667 116.845 24.590 C 116.655 25.097,116.500 25.595,116.500 25.695 C 116.500 25.795,116.356 26.111,116.181 26.397 C 116.005 26.683,115.700 27.404,115.502 28.000 C 114.709 30.385,113.779 32.961,113.424 33.750 C 113.218 34.208,112.616 35.858,112.087 37.417 C 111.558 38.975,111.057 40.335,110.975 40.439 C 110.892 40.543,110.528 41.480,110.164 42.522 C 109.571 44.223,109.503 44.344,109.502 43.708 L 109.500 43.000 105.583 43.000 L 101.667 43.000 101.667 33.250 L 101.667 23.500 98.667 23.500 L 95.667 23.500 95.667 35.668 M133.167 35.653 L 133.167 47.833 139.792 47.830 C 146.844 47.827,147.890 47.736,149.334 47.000 C 150.613 46.347,152.167 44.600,152.167 43.815 C 152.167 43.657,152.260 43.497,152.375 43.458 C 152.527 43.408,152.583 42.813,152.583 41.250 C 152.583 39.687,152.527 39.092,152.375 39.042 C 152.260 39.003,152.167 38.840,152.167 38.678 C 152.167 37.973,150.559 36.206,149.365 35.599 L 148.627 35.224 149.188 35.002 C 150.216 34.596,150.763 34.049,151.405 32.785 L 152.036 31.540 151.976 29.557 C 151.897 26.917,151.251 25.640,149.520 24.694 C 147.636 23.665,147.287 23.623,139.875 23.545 L 133.167 23.474 133.167 35.653 M228.167 35.750 L 228.167 47.833 231.167 47.833 L 234.167 47.833 234.180 40.875 C 234.192 34.334,234.209 33.962,234.455 34.667 C 234.599 35.079,234.766 35.454,234.825 35.500 C 234.885 35.546,235.446 37.158,236.073 39.083 C 236.699 41.008,237.264 42.621,237.328 42.667 C 237.392 42.712,237.810 43.894,238.257 45.292 L 239.069 47.833 241.784 47.833 L 244.499 47.833 244.777 46.833 C 244.930 46.283,245.114 45.833,245.187 45.833 C 245.260 45.833,245.474 45.327,245.663 44.708 C 246.398 42.303,247.586 38.746,247.682 38.667 C 247.738 38.621,248.126 37.571,248.545 36.333 L 249.307 34.083 249.320 40.958 L 249.333 47.833 252.333 47.833 L 255.333 47.833 255.333 35.750 L 255.333 23.667 251.746 23.667 L 248.160 23.667 247.958 24.125 C 247.847 24.377,247.711 24.621,247.655 24.667 C 247.598 24.712,247.397 25.200,247.208 25.750 C 247.018 26.300,246.587 27.500,246.250 28.417 C 245.913 29.333,245.553 30.346,245.451 30.667 C 245.348 30.988,245.206 31.291,245.136 31.340 C 245.021 31.422,244.719 32.226,243.135 36.667 C 242.857 37.446,242.578 38.121,242.516 38.167 C 242.454 38.212,242.300 38.569,242.175 38.958 C 241.910 39.780,241.746 39.851,241.595 39.208 C 241.450 38.591,240.569 36.280,240.085 35.250 C 239.870 34.792,239.422 33.667,239.091 32.750 C 238.052 29.881,237.615 28.753,237.510 28.667 C 237.454 28.621,237.160 27.908,236.857 27.083 C 236.554 26.258,236.143 25.152,235.945 24.625 L 235.585 23.667 231.876 23.667 L 228.167 23.667 228.167 35.750 M325.985 24.866 C 326.475 26.316,326.469 26.333,325.500 26.333 C 325.042 26.333,324.667 26.286,324.667 26.228 C 324.667 25.929,325.070 24.833,325.180 24.833 C 325.250 24.833,325.356 24.608,325.417 24.333 C 325.564 23.661,325.584 23.679,325.985 24.866 M143.167 28.500 C 143.167 28.592,143.357 28.667,143.589 28.667 C 144.820 28.667,145.832 29.681,145.832 30.917 C 145.832 32.659,144.912 33.167,141.755 33.167 L 139.500 33.167 139.500 30.750 L 139.500 28.333 141.333 28.333 C 142.444 28.333,143.167 28.399,143.167 28.500 M217.376 29.556 C 221.944 31.791,221.552 40.275,216.803 41.952 C 210.292 44.251,205.610 35.729,210.481 30.444 C 211.850 28.959,215.258 28.520,217.376 29.556 M120.990 31.833 C 121.108 32.246,121.256 32.621,121.321 32.667 C 121.386 32.712,121.855 34.081,122.364 35.708 L 123.289 38.667 120.644 38.667 C 119.190 38.667,118.000 38.601,118.000 38.521 C 118.000 38.331,118.445 37.056,118.735 36.417 C 118.859 36.142,119.326 34.778,119.772 33.387 C 120.218 31.995,120.627 30.908,120.680 30.970 C 120.734 31.032,120.873 31.421,120.990 31.833 M144.945 38.050 C 146.637 38.940,146.771 41.482,145.175 42.404 C 144.686 42.687,144.213 42.747,142.050 42.805 L 139.500 42.874 139.500 40.250 L 139.500 37.625 141.958 37.699 C 143.821 37.755,144.545 37.840,144.945 38.050 M322.261 42.021 C 321.459 42.209,320.544 42.882,320.284 43.476 C 320.177 43.718,320.014 43.970,319.920 44.036 C 319.473 44.348,319.726 47.049,320.277 47.842 C 322.855 51.553,327.943 49.108,327.006 44.609 C 326.567 42.499,324.658 41.459,322.261 42.021 M270.000 45.750 L 270.000 49.500 271.933 49.500 C 275.401 49.500,276.825 48.213,276.637 45.250 C 276.487 42.906,275.210 42.000,272.057 42.000 L 270.000 42.000 270.000 45.750 M281.667 45.750 L 281.667 49.500 283.833 49.500 L 286.000 49.500 286.000 48.833 L 286.000 48.167 284.500 48.167 L 283.000 48.167 283.000 47.167 L 283.000 46.167 284.333 46.167 L 285.667 46.167 285.667 45.583 L 285.667 45.000 284.333 45.000 L 283.000 45.000 283.000 44.083 L 283.000 43.167 284.500 43.167 L 286.000 43.167 286.000 42.583 L 286.000 42.000 283.833 42.000 L 281.667 42.000 281.667 45.750 M290.333 42.125 C 290.333 42.401,291.466 45.626,291.700 46.019 C 291.831 46.238,292.158 47.110,292.427 47.958 L 292.917 49.499 293.840 49.499 L 294.763 49.500 295.278 48.042 C 295.561 47.240,296.008 45.946,296.271 45.167 C 296.535 44.387,296.794 43.712,296.848 43.667 C 296.980 43.554,297.333 42.505,297.333 42.225 C 297.333 42.067,297.091 42.000,296.515 42.000 L 295.696 42.000 295.117 43.792 C 294.799 44.777,294.365 45.977,294.154 46.459 L 293.770 47.334 292.917 44.709 L 292.063 42.083 291.198 42.033 C 290.723 42.005,290.333 42.047,290.333 42.125 M301.872 45.708 L 301.917 49.417 304.125 49.463 L 306.333 49.510 306.333 48.838 L 306.333 48.167 304.917 48.167 L 303.500 48.167 303.500 47.167 L 303.500 46.167 304.833 46.167 L 306.167 46.167 306.167 45.583 L 306.167 45.000 304.833 45.000 L 303.500 45.000 303.500 44.083 L 303.500 43.167 304.917 43.167 L 306.333 43.167 306.333 42.583 L 306.333 42.000 304.080 42.000 L 301.827 42.000 301.872 45.708 M311.333 45.750 L 311.333 49.500 313.333 49.500 L 315.333 49.500 315.333 48.833 L 315.333 48.167 314.083 48.167 L 312.833 48.167 312.833 45.083 L 312.833 42.000 312.083 42.000 L 311.333 42.000 311.333 45.750 M332.000 45.750 L 332.000 49.500 332.833 49.500 L 333.667 49.500 333.667 48.190 L 333.667 46.879 334.776 46.766 C 336.528 46.586,337.333 45.794,337.333 44.250 C 337.333 42.458,336.639 42.000,333.925 42.000 L 332.000 42.000 332.000 45.750 M342.167 45.736 L 342.167 49.500 342.917 49.500 L 343.667 49.500 343.667 48.188 L 343.667 46.876 344.837 46.761 C 347.136 46.535,348.264 44.215,346.847 42.628 L 346.361 42.083 344.264 42.028 L 342.167 41.973 342.167 45.736 M352.167 45.750 L 352.167 49.500 354.417 49.500 L 356.667 49.500 356.667 48.833 L 356.667 48.167 355.167 48.167 L 353.667 48.167 353.667 47.167 L 353.667 46.167 355.000 46.167 L 356.333 46.167 356.333 45.583 L 356.333 45.000 355.000 45.000 L 353.667 45.000 353.667 44.083 L 353.667 43.167 355.167 43.167 L 356.667 43.167 356.667 42.583 L 356.667 42.000 354.417 42.000 L 352.167 42.000 352.167 45.750 M361.500 45.750 L 361.500 49.500 362.250 49.500 L 363.000 49.500 363.009 47.375 L 363.018 45.250 363.353 46.083 C 363.537 46.542,363.865 47.294,364.082 47.755 C 364.298 48.217,364.528 48.802,364.591 49.056 C 364.768 49.760,365.979 49.657,366.220 48.917 C 366.310 48.642,366.439 48.379,366.508 48.333 C 366.576 48.288,366.884 47.538,367.191 46.667 L 367.750 45.083 367.797 47.292 L 367.843 49.500 368.588 49.500 L 369.333 49.500 369.333 45.750 L 369.333 42.000 368.434 42.000 L 367.534 42.000 367.067 43.292 C 366.810 44.002,366.545 44.606,366.480 44.634 C 366.414 44.662,366.157 45.242,365.909 45.923 C 365.524 46.980,365.167 47.406,365.167 46.810 C 365.167 46.568,364.273 44.367,363.654 43.083 L 363.132 42.000 362.316 42.000 L 361.500 42.000 361.500 45.750 M374.500 45.750 L 374.500 49.500 376.667 49.500 L 378.833 49.500 378.833 48.833 L 378.833 48.167 377.333 48.167 L 375.833 48.167 375.833 47.167 L 375.833 46.167 377.167 46.167 L 378.500 46.167 378.500 45.583 L 378.500 45.000 377.167 45.000 L 375.833 45.000 375.833 44.083 L 375.833 43.167 377.333 43.167 L 378.833 43.167 378.833 42.583 L 378.833 42.000 376.667 42.000 L 374.500 42.000 374.500 45.750 M383.667 45.750 L 383.667 49.500 384.495 49.500 L 385.324 49.500 385.370 47.154 L 385.417 44.808 386.044 45.880 C 386.388 46.470,386.844 47.154,387.055 47.400 C 387.267 47.647,387.660 48.218,387.928 48.671 C 388.404 49.471,388.438 49.493,389.208 49.497 L 390.000 49.500 390.000 45.750 L 390.000 42.000 389.167 42.000 L 388.333 42.000 388.333 44.283 L 388.333 46.565 387.862 45.822 C 387.603 45.414,387.191 44.863,386.946 44.599 C 386.700 44.334,386.500 44.034,386.500 43.932 C 386.500 43.149,385.308 42.000,384.496 42.000 L 383.667 42.000 383.667 45.750 M394.500 42.583 L 394.500 43.167 395.500 43.167 L 396.500 43.167 396.500 46.333 L 396.500 49.500 397.250 49.500 L 398.000 49.500 398.000 46.333 L 398.000 43.167 399.000 43.167 L 400.000 43.167 400.000 42.583 L 400.000 42.000 397.250 42.000 L 394.500 42.000 394.500 42.583 M324.168 43.437 C 326.427 44.341,325.879 48.000,323.484 48.000 C 321.013 48.000,320.394 44.103,322.753 43.392 C 323.118 43.282,323.434 43.187,323.455 43.179 C 323.476 43.172,323.797 43.288,324.168 43.437 M335.255 43.408 C 336.496 43.927,335.856 45.333,334.380 45.333 L 333.667 45.333 333.667 44.250 L 333.667 43.167 334.172 43.167 C 334.450 43.167,334.937 43.275,335.255 43.408 M345.516 43.684 C 346.015 44.218,346.124 44.500,345.833 44.500 C 345.742 44.500,345.667 44.610,345.667 44.744 C 345.667 45.094,345.129 45.333,344.344 45.333 L 343.667 45.333 343.667 44.250 L 343.667 43.167 344.350 43.167 C 344.899 43.167,345.128 43.268,345.516 43.684 M273.922 43.533 C 274.858 43.959,275.314 45.909,274.739 47.021 C 274.416 47.646,273.608 48.000,272.505 48.000 L 271.667 48.000 271.667 45.667 L 271.667 43.333 272.575 43.333 C 273.075 43.333,273.681 43.423,273.922 43.533 " stroke="none" fill="#fcfcfc" fill-rule="evenodd"></path><path d="M11.605 0.259 C 9.209 0.735,6.919 1.752,5.782 2.845 C 5.406 3.205,5.017 3.500,4.917 3.500 C 4.679 3.500,3.691 4.561,3.093 5.458 C 2.834 5.848,2.558 6.167,2.481 6.167 C 1.803 6.167,0.188 11.121,0.047 13.630 L -0.048 15.344 24.851 15.291 C 49.349 15.240,49.770 15.233,51.000 14.897 C 52.512 14.484,54.659 13.598,55.104 13.204 C 55.693 12.682,56.812 11.833,56.911 11.833 C 57.104 11.833,58.205 10.741,58.424 10.333 C 58.546 10.104,58.919 9.617,59.253 9.250 C 60.597 7.770,61.643 4.725,61.786 1.875 L 61.880 -0.000 37.315 0.016 C 17.282 0.028,12.539 0.073,11.605 0.259 M26.402 21.587 C 22.355 22.108,16.564 24.184,14.188 25.966 C 13.785 26.267,13.222 26.635,12.936 26.782 C 11.606 27.468,5.833 32.842,5.833 33.394 C 5.833 33.513,5.578 33.867,5.265 34.181 C 4.682 34.765,2.667 38.083,2.667 38.458 C 2.667 38.573,2.603 38.667,2.526 38.667 C 2.152 38.667,0.338 43.453,0.065 45.158 L -0.043 45.833 8.270 45.832 L 16.583 45.830 17.167 44.812 C 17.487 44.253,18.254 43.260,18.870 42.606 C 19.485 41.952,19.992 41.359,19.995 41.289 C 20.003 41.093,23.475 38.836,24.417 38.414 C 30.458 35.708,37.874 37.185,42.510 42.020 C 43.203 42.742,43.730 43.333,43.681 43.333 C 43.632 43.333,43.740 43.438,43.921 43.566 C 44.611 44.053,46.535 48.259,46.920 50.123 C 47.383 52.367,47.064 58.000,46.473 58.000 C 46.385 58.000,46.353 58.064,46.401 58.142 C 46.529 58.349,44.451 62.511,43.975 63.000 C 43.752 63.229,43.208 63.847,42.766 64.373 C 42.324 64.899,41.502 65.640,40.940 66.019 C 40.377 66.398,39.729 66.878,39.500 67.085 C 36.161 70.110,25.556 70.047,22.278 66.984 C 22.079 66.798,21.531 66.389,21.059 66.075 C 20.587 65.761,19.799 65.046,19.309 64.485 C 18.818 63.925,18.223 63.263,17.987 63.014 C 17.751 62.766,17.341 62.136,17.077 61.615 L 16.597 60.667 8.280 60.667 L -0.038 60.667 0.074 61.414 C 0.470 64.056,2.965 69.523,4.917 72.027 C 6.657 74.261,8.064 75.843,9.188 76.830 C 9.864 77.424,10.454 77.953,10.500 78.005 C 10.724 78.258,12.659 79.667,12.784 79.667 C 12.862 79.667,13.162 79.882,13.451 80.146 C 14.028 80.673,17.483 82.500,17.903 82.500 C 18.048 82.500,18.167 82.563,18.167 82.640 C 18.167 82.942,21.532 84.054,24.000 84.567 C 28.349 85.471,33.846 85.436,38.250 84.476 C 40.612 83.961,43.518 83.024,43.833 82.675 C 43.879 82.625,44.554 82.285,45.333 81.920 C 46.112 81.555,47.155 80.992,47.649 80.670 C 48.144 80.347,48.782 79.938,49.066 79.761 C 51.033 78.534,54.064 75.749,55.699 73.667 C 56.239 72.979,56.901 72.154,57.171 71.833 C 57.441 71.512,57.899 70.800,58.189 70.250 C 58.479 69.700,58.935 68.920,59.202 68.517 C 59.835 67.564,60.742 65.360,61.367 63.258 C 61.641 62.337,61.963 61.358,62.084 61.083 C 63.237 58.445,63.173 46.709,61.997 45.250 C 61.924 45.158,61.746 44.633,61.604 44.083 C 60.816 41.050,58.326 35.897,56.972 34.500 C 56.750 34.271,56.335 33.746,56.049 33.333 C 54.877 31.639,50.717 27.749,49.121 26.856 C 48.733 26.639,48.117 26.248,47.750 25.987 C 46.818 25.323,45.047 24.411,43.727 23.914 C 43.112 23.683,42.510 23.411,42.388 23.310 C 42.266 23.209,42.167 23.182,42.167 23.250 C 42.167 23.318,42.067 23.292,41.945 23.191 C 40.343 21.861,31.423 20.941,26.402 21.587 " stroke="none" fill="#2cbcbc" fill-rule="evenodd"></path><path d="" stroke="none" fill="#100dcdc" fill-rule="evenodd"></path><path d="" stroke="none" fill="#64dcdc" fill-rule="evenodd"></path><path d="" stroke="none" fill="#2ce0dc" fill-rule="evenodd"></path></g></svg>